<svg width="360.017883" height="360.341553" viewBox="0 0 360.018 360.342" fill="none" xmlns="http://www.w3.org/2000/svg" xmlns:xlink="http://www.w3.org/1999/xlink">
	<desc>
			Created with Pixso.
	</desc>
	<defs/>
	<path id="矢量 1" d="M103.66 137.1C92.45 139.98 80.64 140.87 70.31 136.72C73.68 135.39 77.14 134.2 80.59 133.02C94.38 125.9 107.44 117.86 120.89 110.33L122.01 110.13C141.75 106.13 160.33 98.34 179.65 92.9C197.9 85.75 218.55 85.31 236.83 89.68C197.22 113.89 151.12 130.48 103.66 137.1Z" fill="#C8AFFE" fill-opacity="1.000000" fill-rule="nonzero"/>
	<path id="矢量 1" d="M172.87 96.4C153.38 101.78 134.65 109.5 114.73 113.44C133.8 100.37 155.28 88.69 179.11 83.06C200.47 77.49 222.68 76.73 244.5 73.97C258.65 72.21 271.93 66.68 286.18 65.48C270.61 78.61 247.21 81.29 230.61 93.32C212.12 88.92 191.26 89.31 172.87 96.4Z" fill="#A57BFF" fill-opacity="1.000000" fill-rule="nonzero"/>
	<path id="矢量 1" d="M313.14 300.52C311.94 301.15 309.54 302.38 308.34 303.01C300.25 293.78 298.85 279.86 294.71 268.1C290.34 248.56 285.79 228.75 285.21 208.46C289.99 221.38 296.82 233.09 301.86 245.86C304.54 252.82 308.27 259.13 311.96 265.4C315.44 276.57 314.38 288.94 313.14 300.52Z" fill="#B18CFF" fill-opacity="1.000000" fill-rule="nonzero"/>
	<path id="矢量 1" d="M295.04 195.26C298.93 219.2 309.75 241.06 311.96 265.4C308.27 259.13 304.54 252.82 301.86 245.86C296.82 233.09 289.99 221.38 285.21 208.46C282.1 198.71 283.39 188.06 283.18 177.87C283.01 169.44 284.06 160.94 287.36 153.34C293.98 166.09 290.83 181.61 295.04 195.26Z" fill="#9C6EFF" fill-opacity="1.000000" fill-rule="nonzero"/>
	<path id="矢量 1" d="M58.47 338.18C38.8 346.88 18.05 359.67 0.01 360C0.83 357.67 2.46 352.96 3.29 350.59C36.86 327.8 70.42 287.22 103.11 246.68C125.14 218.2 147.98 199.7 170.45 176.55C191.48 159.48 212.76 136.97 233.55 124.79C244.11 117.67 254.62 111.15 265.08 105.06C288.6 89.51 312.91 63.99 335.4 32.05C343.53 21.07 351.72 10.11 360.01 0C358.44 5.48 358.12 11.39 355.4 16.48C338.66 48.52 318.91 73.27 300.51 101.07C281.03 130.69 260.21 154.47 239.85 179.77C219.89 207.42 199.07 231.7 178.1 250.4C138.02 286.64 97.17 321.86 58.47 338.18Z" fill="#8C57FF" fill-opacity="1.000000" fill-rule="nonzero"/>
</svg>
